<?xml version="1.0" encoding="UTF-8" standalone="no" ?>
<!DOCTYPE svg PUBLIC "-//W3C//DTD SVG 1.1//EN" "http://www.w3.org/Graphics/SVG/1.1/DTD/svg11.dtd">
<svg xmlns="http://www.w3.org/2000/svg" xmlns:xlink="http://www.w3.org/1999/xlink" version="1.1" width="1080" height="1080" viewBox="0 0 1080 1080" xml:space="preserve">
<desc>Created with Fabric.js 5.2.4</desc>
<defs>
</defs>
<g transform="matrix(1 0 0 1 540 540)" id="8bc6b607-14d5-43ce-b76a-f5805b8e33c1"  >
</g>
<g transform="matrix(1 0 0 1 540 540)" id="89d39882-080f-4ec8-9457-dfb89d9624f9"  >
<rect style="stroke: none; stroke-width: 1; stroke-dasharray: none; stroke-linecap: butt; stroke-dashoffset: 0; stroke-linejoin: miter; stroke-miterlimit: 4; fill: rgb(255,255,255); fill-rule: nonzero; opacity: 1; visibility: hidden;" vector-effect="non-scaling-stroke"  x="-540" y="-540" rx="0" ry="0" width="1080" height="1080" />
</g>
<g transform="matrix(1 0 0 1 540 526.61)" clip-path="url(#CLIPPATH_10)"  >
<clipPath id="CLIPPATH_10" >
	<rect transform="matrix(1 0 0 1 256.41 13.92)" id="_clipPath_ArORAyg4VvTAVLPIsMsKUlr8GuiXmLKq" x="-351.105" y="-160.21" rx="0" ry="0" width="702.21" height="320.42" />
</clipPath>
<path style="stroke: none; stroke-width: 1; stroke-dasharray: none; stroke-linecap: butt; stroke-dashoffset: 0; stroke-linejoin: miter; stroke-miterlimit: 4; fill: rgb(50,108,8); fill-rule: nonzero; opacity: 1;" vector-effect="non-scaling-stroke"  transform=" translate(-79.6, -717.87)" d="M 52.452 846.238 C 36.43 834.585 22.091 821.738 11.284 805.353 C -1.313 786.256 -5.836 765.41 -3.655 742.604 C -1.836 723.582 2.289 704.853 2.777 685.665 C 3.287 665.659 -1.158 647.055 -11.093 629.719 C -12.484 627.291 -13.748 624.791 -15.104 622.261 C 6.315 615.99 59.222 651.313 65.53 677.025 C 49.093 657.05 30.404 642.56 6.376 635.959 C 4.85 638.405 6.262 639.997 6.862 641.567 C 14.357 661.177 15.333 681.359 12.766 701.986 C 10.756 718.132 7.8 734.147 7.149 750.487 C 6.095 776.963 16.594 798.358 34.869 816.55 C 39.546 821.205 44.266 825.885 50.879 830.585 C 48.565 822.67 46.485 816.134 44.746 809.508 C 36.077 776.458 41.29 744.915 54.974 714.205 C 62.427 697.478 70.912 681.222 77.293 664.001 C 87.288 637.027 85.216 611.146 71.23 586.093 C 68.677 581.52 66.412 576.786 64.085 572.265 C 65.54 571.14 66.27 571.649 66.964 572.07 C 92.753 587.719 118.694 603.142 140.16 624.811 C 155.181 639.975 167.106 656.952 172.153 678.078 C 177.32 699.709 172.637 719.998 163.569 739.629 C 156.061 755.882 145.852 770.533 136.078 785.438 C 127.673 798.255 119.175 811.019 112.938 825.102 C 108.806 834.435 105.514 843.984 105.197 854.333 C 105.164 855.418 105.323 856.705 104.078 857.417 C 102.622 854.629 102.715 849.549 104.095 841.748 C 106.829 826.286 113.196 812.233 120.584 798.554 C 129.613 781.841 140.203 766.021 148.846 749.089 C 156.532 734.03 162.882 718.591 163.731 701.355 C 164.494 685.841 160.43 671.699 152.346 658.622 C 137.078 633.924 114.785 616.688 90.068 599.999 C 91.315 605.452 92.447 609.663 93.228 613.937 C 96.804 633.493 93.73 652.301 86.738 670.674 C 80.925 685.951 73.454 700.484 66.821 715.393 C 60.852 728.812 55.797 742.499 53.306 757.054 C 49.106 781.601 53.251 805.096 62.451 827.839 C 66.505 837.861 71.459 847.519 75.992 857.348 C 76.75 858.991 77.843 860.521 77.888 864.156 C 68.974 857.879 60.858 852.165 52.452 846.238 Z" stroke-linecap="round" />
</g>
<g transform="matrix(1 0 0 1 566.73 593.24)" clip-path="url(#CLIPPATH_11)"  >
<clipPath id="CLIPPATH_11" >
	<rect transform="matrix(1 0 0 1 229.68 -52.71)" id="_clipPath_ArORAyg4VvTAVLPIsMsKUlr8GuiXmLKq" x="-351.105" y="-160.21" rx="0" ry="0" width="702.21" height="320.42" />
</clipPath>
<path style="stroke: none; stroke-width: 1; stroke-dasharray: none; stroke-linecap: butt; stroke-dashoffset: 0; stroke-linejoin: miter; stroke-miterlimit: 4; fill: rgb(50,108,8); fill-rule: nonzero; opacity: 1;" vector-effect="non-scaling-stroke"  transform=" translate(-106.32, -784.5)" d="M 93.165 885.341 C 83.12 866.885 77.39 847.57 77.235 826.858 C 77.126 812.197 79.71 797.924 87.05 785.053 C 91.664 776.963 93.464 769.496 88.842 760.609 C 85.169 753.545 85.16 745.447 86.725 737.634 C 90.614 718.228 94.81 698.892 101.98 680.356 C 102.277 679.588 102.701 678.87 103.097 678.067 C 104.722 681.414 104.627 684.776 102.99 694.282 C 101.299 704.102 99.755 713.947 98.101 723.774 C 97.769 725.749 96.856 728.323 99.549 728.748 C 102.622 729.233 103.071 726.165 103.478 723.963 C 105.29 714.17 106.865 704.334 108.681 694.541 C 109.607 689.551 110.86 684.621 112.685 679.748 C 116.532 696.256 112.244 712.544 110.644 729.072 C 114.516 728.755 114.419 726.553 114.732 724.64 C 116.846 711.696 118.503 698.672 121.52 685.886 C 121.932 684.144 122.057 682.3 123.898 680.529 C 127.801 697.441 122.145 713.748 122.984 730.243 C 127 725.977 126.438 720.329 127.496 715.264 C 128.58 710.077 128.96 704.743 129.654 699.474 C 130.366 694.075 131.085 688.677 131.946 682.181 C 134.938 687.05 134.739 691.593 135.026 695.752 C 136.203 712.812 134.822 729.655 129.093 745.937 C 126.264 753.981 122.245 761.592 114.739 765.807 C 96.868 775.841 91.468 792.944 88.436 811.122 C 84.205 836.481 88.911 861.105 96.494 885.304 C 97.026 887 97.994 888.613 97.57 890.932 C 95.095 889.806 94.629 887.378 93.165 885.341 Z" stroke-linecap="round" />
</g>
<g transform="matrix(1 0 0 1 487.46 531.6)" clip-path="url(#CLIPPATH_12)"  >
<clipPath id="CLIPPATH_12" >
	<rect transform="matrix(1 0 0 1 308.96 8.94)" id="_clipPath_ArORAyg4VvTAVLPIsMsKUlr8GuiXmLKq" x="-351.105" y="-160.21" rx="0" ry="0" width="702.21" height="320.42" />
</clipPath>
<path style="stroke: none; stroke-width: 1; stroke-dasharray: none; stroke-linecap: butt; stroke-dashoffset: 0; stroke-linejoin: miter; stroke-miterlimit: 4; fill: rgb(50,108,8); fill-rule: nonzero; opacity: 1;" vector-effect="non-scaling-stroke"  transform=" translate(-27.05, -722.85)" d="M 34.313 730.87 C 31.944 742.924 30.895 754.632 31.207 766.51 C 31.517 778.265 34.785 789.331 38.716 800.535 C 36.105 800.426 35.688 798.548 34.908 797.286 C 24.24 780.017 21.025 761.274 23.299 741.225 C 25.061 725.689 29.042 710.51 30.414 694.947 C 31.863 678.516 27.495 663.634 17.469 650.454 C 16.422 649.078 14.625 648.087 14.749 645.174 C 21.841 649.882 27.088 655.666 31.216 662.43 C 38.74 674.758 40.187 688.387 38.974 702.417 C 38.158 711.862 36.326 721.17 34.313 730.87 Z" stroke-linecap="round" />
</g>
<g transform="matrix(0 0 0 0 0 0)"  >
<g style=""   >
</g>
</g>
<g transform="matrix(NaN NaN NaN NaN 0 0)"  >
<g style=""   >
</g>
</g>
<g transform="matrix(NaN NaN NaN NaN 0 0)"  >
<g style=""   >
</g>
</g>
<g transform="matrix(NaN NaN NaN NaN 0 0)"  >
<g style=""   >
</g>
</g>
</svg>